<?xml version="1.0" standalone="no"?>
<!DOCTYPE svg PUBLIC "-//W3C//DTD SVG 20010904//EN"
 "http://www.w3.org/TR/2001/REC-SVG-20010904/DTD/svg10.dtd">
<svg version="1.0" xmlns="http://www.w3.org/2000/svg"
 width="260.000000pt" height="260.000000pt" viewBox="0 0 260.000000 260.000000"
 preserveAspectRatio="xMidYMid meet">
<metadata>
Created by potrace 1.11, written by Peter Selinger 2001-2013
</metadata>
<g transform="translate(0.000000,260.000000) scale(0.100000,-0.100000)"
fill="#000000" stroke="none">
<path d="M1134 2591 c-3 -3 -17 -7 -32 -8 -15 -1 -40 -5 -57 -9 -16 -4 -38 -7
-47 -8 -10 0 -18 -3 -18 -6 0 -3 -8 -7 -17 -8 -25 -2 -45 -8 -65 -16 -9 -4
-22 -9 -30 -10 -65 -13 -216 -95 -363 -196 -26 -18 -118 -103 -154 -144 -14
-15 -36 -39 -48 -52 -12 -13 -37 -45 -54 -71 -18 -27 -36 -50 -39 -53 -4 -3
-19 -31 -35 -62 -16 -32 -33 -58 -37 -58 -4 0 -8 -9 -8 -19 0 -11 -5 -23 -10
-26 -6 -4 -8 -11 -5 -16 4 -5 1 -9 -4 -9 -6 0 -11 -9 -11 -20 0 -11 -5 -20
-12 -20 -6 0 -9 -3 -6 -6 3 -3 -3 -30 -13 -60 -11 -29 -20 -63 -22 -74 -2 -11
-6 -23 -10 -26 -4 -4 -7 -22 -7 -39 0 -17 -3 -35 -7 -39 -12 -12 -17 -90 -15
-251 2 -185 4 -215 12 -215 3 0 7 -16 8 -37 2 -20 6 -41 10 -47 3 -6 8 -20 10
-31 6 -36 18 -69 33 -97 5 -10 9 -22 9 -28 0 -5 12 -35 26 -67 15 -32 26 -60
25 -62 -2 -2 1 -7 6 -10 5 -3 25 -33 43 -66 43 -75 148 -206 213 -265 27 -25
60 -55 73 -68 13 -13 24 -20 24 -17 0 3 12 -6 27 -20 15 -14 33 -25 40 -25 7
0 13 -4 13 -8 0 -5 12 -15 28 -23 15 -8 29 -16 32 -19 11 -12 180 -90 194 -90
9 0 16 -5 16 -12 0 -6 3 -9 6 -5 4 3 18 0 33 -7 14 -7 32 -11 39 -9 6 3 12 1
12 -4 0 -5 8 -9 18 -10 21 -1 70 -12 97 -20 11 -4 31 -7 45 -8 14 0 30 -3 35
-6 17 -10 286 -9 280 0 -3 5 4 7 16 4 24 -7 167 16 174 28 3 4 14 5 25 2 12
-3 20 0 20 6 0 7 5 9 10 6 6 -3 16 -3 23 2 6 4 17 9 22 10 43 10 59 16 140 54
28 12 62 31 76 40 14 10 28 16 31 13 3 -2 11 2 18 11 7 8 17 15 22 15 5 0 14
5 21 10 7 6 35 28 62 48 81 59 175 148 175 164 0 5 4 7 8 4 4 -2 17 9 27 25
11 16 23 29 28 29 4 0 7 7 7 15 0 8 3 15 8 15 4 0 18 17 32 38 14 20 31 43 37
50 7 7 13 20 13 28 0 8 5 14 11 14 5 0 7 5 4 10 -3 6 -1 10 5 10 6 0 9 4 6 9
-4 5 -3 11 2 13 9 3 54 95 58 117 2 8 9 18 16 22 7 5 10 9 6 9 -4 0 -2 17 6
38 33 88 57 186 59 244 1 21 5 38 9 38 4 0 5 66 3 148 -5 182 -8 232 -15 232
-5 0 -10 33 -13 78 0 6 -3 12 -7 12 -3 0 -7 9 -8 20 -1 11 -3 29 -4 40 -1 11
-6 20 -10 20 -4 0 -8 8 -8 18 0 10 -4 22 -8 28 -5 5 -15 28 -22 52 -7 23 -18
42 -23 42 -6 0 -7 3 -4 6 3 4 1 16 -5 28 -7 11 -11 24 -10 29 1 4 -2 7 -6 7
-5 0 -14 12 -21 28 -56 125 -244 332 -384 424 -23 15 -46 31 -52 36 -18 14
-138 77 -195 101 -85 37 -194 67 -296 84 -11 2 -27 8 -34 12 -9 5 -11 4 -6 -3
4 -7 2 -12 -3 -12 -6 0 -11 4 -11 9 0 9 -306 11 -316 2z"/>
</g>
</svg>
